<svg width="32" height="32" viewBox="0 0 32 32" fill="none" xmlns="http://www.w3.org/2000/svg">
<path d="M0 5.62634C0 5.38727 0.0243263 5.14824 0.0982019 4.92086C1.59024 0.328652 10.2167 -3.23603 14.5398 4.6506C14.7575 5.04766 14.8571 5.50166 14.8571 5.95447V25.7476C14.8571 28.2375 11.9944 29.5536 9.65075 28.7132C8.26575 28.2165 6.97651 28.1125 5.65829 28.421C3.13813 29.0107 0 27.7543 0 25.1661V5.62634Z" fill="#3A3ABF"/>
<path d="M17.1429 5.78162C17.1429 5.54254 17.1672 5.30351 17.2411 5.07614C18.7331 0.483925 27.3595 -3.08076 31.6827 4.80587C31.9003 5.20293 32 5.65694 32 6.10974V25.9029C32 28.3927 29.1373 29.7089 26.7936 28.8685C25.4086 28.3718 24.1194 28.2677 22.8011 28.5762C20.281 29.166 17.1429 27.9096 17.1429 25.3214V5.78162Z" fill="#3A3ABF"/>
</svg>
