<svg width="36" height="34" viewBox="0 0 36 34" fill="none" xmlns="http://www.w3.org/2000/svg">
<path d="M1.14714 6.61186C1.03017 6.97187 1 7.32358 1 7.62634V27.1661C1 28.9331 2.09143 30.1898 3.42775 30.8751C4.74627 31.5513 6.40425 31.7415 7.88616 31.3947C8.99351 31.1355 10.0858 31.2143 11.3132 31.6545C12.7525 32.1706 14.3467 32.0285 15.6016 31.3626C16.875 30.6869 17.8571 29.428 17.8571 27.7476V7.95447C17.8571 7.35903 17.7265 6.73509 17.4167 6.16992C16.2507 4.04282 14.7586 2.62718 13.1081 1.82128C11.4605 1.01681 9.71637 0.849888 8.09336 1.1197C4.90979 1.64896 2.02841 3.89948 1.14714 6.61186Z" fill="white" stroke="#D9D9D9" stroke-width="2"/>
<path d="M1.14714 6.61186C1.03017 6.97187 1 7.32358 1 7.62634V27.1661C1 28.9331 2.09143 30.1898 3.42775 30.8751C4.74627 31.5513 6.40425 31.7415 7.88616 31.3947C8.99351 31.1355 10.0858 31.2143 11.3132 31.6545C12.7525 32.1706 14.3467 32.0285 15.6016 31.3626C16.875 30.6869 17.8571 29.428 17.8571 27.7476V7.95447C17.8571 7.35903 17.7265 6.73509 17.4167 6.16992C16.2507 4.04282 14.7586 2.62718 13.1081 1.82128C11.4605 1.01681 9.71637 0.849888 8.09336 1.1197C4.90979 1.64896 2.02841 3.89948 1.14714 6.61186Z" fill="white" stroke="#D9D9D9" stroke-width="2"/>
<path d="M18.29 6.76713C18.173 7.12714 18.1429 7.47885 18.1429 7.78162V27.3214C18.1429 29.0884 19.2343 30.345 20.5706 31.0304C21.8891 31.7066 23.5471 31.8967 25.029 31.5499C26.1364 31.2908 27.2286 31.3696 28.456 31.8098C29.8954 32.3259 31.4896 32.1838 32.7444 31.5179C34.0178 30.8422 35 29.5833 35 27.9029V8.10974C35 7.5143 34.8694 6.89036 34.5596 6.32519C33.3936 4.19809 31.9014 2.78245 30.2509 1.97655C28.6034 1.17209 26.8592 1.00516 25.2362 1.27498C22.0526 1.80423 19.1713 4.05475 18.29 6.76713Z" fill="white" stroke="#D9D9D9" stroke-width="2"/>
</svg>
